<?xml version="1.0" standalone="no"?>
<!DOCTYPE svg PUBLIC "-//W3C//DTD SVG 20010904//EN"
 "http://www.w3.org/TR/2001/REC-SVG-20010904/DTD/svg10.dtd">
<svg version="1.0" xmlns="http://www.w3.org/2000/svg"
 width="730.000000pt" height="342.000000pt" viewBox="0 0 730.000000 342.000000"
 preserveAspectRatio="xMidYMid meet">

<g transform="translate(0.000000,342.000000) scale(0.100000,-0.100000)"
fill="#000000" stroke="none">
<path d="M4405 2841 c-65 -11 -167 -65 -214 -112 -24 -24 -58 -73 -75 -109
-29 -60 -31 -73 -31 -170 0 -95 3 -111 29 -168 37 -81 132 -172 208 -200 119
-43 237 -36 344 23 l62 33 32 -33 c29 -29 31 -36 20 -50 -12 -14 -3 -27 66
-96 l80 -80 -42 -42 c-50 -51 -69 -116 -53 -186 13 -58 38 -91 102 -137 91
-65 107 -84 107 -124 0 -41 -24 -70 -57 -70 -28 0 -45 23 -47 62 -1 24 -6 33
-19 32 -9 0 -37 -1 -62 -2 l-45 -2 0 -45 c0 -102 52 -155 153 -155 32 0 72 6
90 14 43 17 93 76 106 123 28 101 4 155 -108 242 -45 34 -85 71 -91 81 -26 49
0 110 48 110 25 0 52 -35 52 -67 0 -21 4 -23 54 -23 48 0 57 3 80 31 51 61 44
73 -143 262 -150 151 -171 169 -185 157 -15 -11 -21 -9 -51 20 l-33 32 28 44
c61 97 75 241 35 353 -34 97 -141 199 -244 236 -51 18 -144 26 -196 16z m199
-104 c276 -127 234 -526 -64 -597 -104 -25 -222 11 -294 91 -75 83 -104 175
-86 271 40 209 254 322 444 235z"/>
<path d="M4392 2712 c-10 -6 1 -11 35 -16 61 -8 136 -47 192 -100 50 -48 101
-146 101 -196 0 -26 3 -31 10 -20 5 8 10 40 10 70 0 103 -65 197 -169 243 -49
22 -158 33 -179 19z"/>
<path d="M3620 2648 c-5 -13 -28 -97 -50 -188 -23 -91 -59 -231 -81 -311 -21
-81 -39 -152 -39 -158 0 -15 92 -14 112 2 9 6 20 32 25 57 l9 45 59 6 c33 3
63 4 67 2 4 -2 10 -27 14 -55 l7 -51 59 6 c33 3 62 7 64 10 3 2 -19 151 -48
331 l-53 326 -68 0 c-60 0 -68 -2 -77 -22z m80 -288 c6 -52 12 -107 15 -122 4
-24 1 -27 -35 -33 -22 -4 -43 -4 -49 -1 -5 3 -1 42 11 93 25 118 39 166 43
161 2 -2 9 -46 15 -98z"/>
<path d="M3135 2626 c-42 -18 -92 -78 -104 -123 -17 -68 -32 -392 -20 -440 12
-47 66 -103 99 -103 24 0 60 -46 60 -77 0 -16 -8 -27 -25 -33 -19 -7 -25 -17
-25 -40 0 -28 3 -30 36 -30 73 0 120 89 78 148 -16 24 -12 42 11 42 44 0 124
112 125 173 0 26 -1 27 -59 27 l-59 0 -9 -37 c-5 -20 -20 -45 -35 -56 -25 -19
-28 -19 -52 -3 -30 19 -30 22 -16 255 11 171 21 201 68 201 37 0 52 -17 52
-58 l0 -35 55 6 c68 7 75 11 75 48 0 44 -23 91 -59 122 -28 24 -41 27 -99 27
-37 -1 -81 -7 -97 -14z"/>
<path d="M2703 2603 c-28 -3 -44 -10 -47 -21 -7 -21 -166 -640 -169 -656 -1
-6 4 -11 11 -10 6 1 34 2 61 3 l50 1 12 54 c13 61 21 66 102 66 47 0 47 0 47
-34 0 -60 6 -66 70 -66 33 0 61 3 63 8 3 5 -68 466 -98 630 -6 35 -3 34 -102
25z m31 -270 c3 -32 9 -88 12 -125 l7 -68 -48 0 c-44 0 -47 2 -42 22 4 12 16
68 28 125 12 57 25 103 29 103 4 0 10 -26 14 -57z"/>
<path d="M2206 2565 c-114 -40 -132 -82 -147 -338 -13 -221 -9 -254 39 -300
54 -52 166 -51 241 3 60 42 105 176 59 174 -10 0 -38 -1 -63 -2 -43 -2 -45 -3
-45 -32 0 -36 -31 -70 -64 -70 -46 0 -49 16 -41 218 8 219 15 241 77 242 30 0
48 -24 48 -64 0 -24 1 -24 58 -19 59 6 72 15 67 42 -1 9 -5 32 -9 52 -15 86
-119 130 -220 94z"/>
<path d="M4518 1853 c-15 -2 -29 -12 -32 -21 -12 -40 -166 -645 -166 -653 0
-5 27 -9 59 -9 l59 0 14 58 14 57 66 3 65 3 7 -51 7 -50 61 0 61 0 -6 58 c-7
69 -86 569 -93 595 -5 17 -45 21 -116 10z m57 -370 l7 -93 -46 0 c-25 0 -46 3
-46 7 0 11 51 226 57 243 8 20 19 -43 28 -157z"/>
<path d="M4095 1825 c-77 -5 -146 -14 -152 -18 -8 -5 -13 -29 -13 -57 l0 -49
66 6 65 6 -6 -74 c-6 -80 -25 -429 -25 -467 0 -22 3 -23 63 -20 l62 3 16 280
c9 154 17 281 18 282 0 1 30 5 66 8 l65 7 0 44 c0 24 -1 47 -2 52 -4 10 -58 9
-223 -3z"/>
<path d="M3568 1791 c-43 -4 -79 -9 -81 -11 -4 -5 -37 -594 -37 -647 0 -21 5
-23 49 -23 78 0 81 3 81 79 0 161 19 236 50 205 5 -5 22 -68 37 -139 l28 -130
60 4 c33 1 62 5 65 8 2 2 -12 68 -32 146 l-36 141 30 35 c42 48 60 96 61 162
0 65 -24 121 -66 153 -30 22 -93 28 -209 17z m116 -117 c8 -3 20 -21 26 -40
22 -66 -20 -134 -82 -134 l-28 0 0 83 c0 46 3 87 7 90 8 9 56 9 77 1z"/>
<path d="M3220 1763 c-19 -1 -67 -5 -106 -9 l-71 -5 -12 -237 c-6 -130 -15
-282 -18 -337 l-6 -101 159 12 c87 7 165 13 172 13 8 1 12 19 12 56 l0 56
-107 -7 -106 -7 6 63 c4 35 7 73 7 86 0 21 5 23 63 26 l62 3 3 53 3 52 -61 0
-61 0 3 83 3 82 105 10 105 10 3 53 3 52 -63 -2 c-35 0 -79 -3 -98 -5z"/>
<path d="M2727 1730 c-54 -4 -101 -10 -104 -13 -6 -7 -32 -474 -33 -593 l0
-81 58 5 c31 2 58 5 59 6 1 1 5 64 10 141 l8 140 60 5 59 5 9 43 c13 67 8 73
-64 65 l-62 -6 6 63 c4 35 7 73 7 85 0 21 6 23 102 29 57 4 103 8 104 9 1 1 4
26 6 55 l5 52 -66 -1 c-36 -1 -110 -5 -164 -9z"/>
<path d="M2270 1698 c-52 -14 -95 -52 -120 -103 -18 -38 -23 -73 -31 -223 -11
-207 -6 -262 27 -301 35 -42 74 -55 150 -48 79 6 126 38 163 110 21 43 25 69
34 251 10 194 10 205 -9 242 -35 69 -123 98 -214 72z m85 -118 c16 -18 17 -35
11 -202 -8 -181 -15 -221 -47 -241 -26 -16 -68 0 -75 30 -4 15 -3 107 2 206 9
179 9 179 37 203 34 29 48 30 72 4z"/>
</g>
</svg>
