<?xml version="1.0" standalone="no"?>
<!DOCTYPE svg PUBLIC "-//W3C//DTD SVG 20010904//EN"
 "http://www.w3.org/TR/2001/REC-SVG-20010904/DTD/svg10.dtd">
<svg version="1.0" xmlns="http://www.w3.org/2000/svg"
 width="365.000000pt" height="206.000000pt" viewBox="0 0 365.000000 206.000000"
 preserveAspectRatio="xMidYMid meet">

<g transform="translate(0.000000,206.000000) scale(0.100000,-0.100000)"
fill="#000000" stroke="none">
<path d="M2221 1899 c-117 -37 -216 -120 -269 -225 -41 -82 -54 -136 -54 -225
2 -230 163 -419 394 -460 142 -25 301 27 407 135 l55 55 47 -26 c42 -22 47
-28 38 -45 -13 -24 -15 -23 79 -75 42 -24 65 -41 51 -37 -34 7 -104 -12 -140
-39 -67 -49 -90 -168 -46 -240 13 -21 57 -64 98 -95 40 -32 75 -66 77 -76 6
-31 -8 -67 -31 -75 -34 -13 -57 4 -57 44 l0 35 -59 0 c-57 0 -59 -1 -64 -29
-11 -55 18 -123 63 -146 42 -22 138 -19 176 4 55 33 85 83 91 149 7 72 -9 106
-74 159 -128 104 -140 123 -113 172 25 47 80 30 80 -24 l0 -35 60 0 60 0 0 51
c0 28 -5 59 -11 71 -6 11 -9 21 -7 23 2 1 55 -26 118 -61 63 -35 127 -64 142
-64 95 0 136 103 65 165 -23 21 -460 265 -473 265 -4 0 -12 -7 -18 -16 -11
-14 -17 -13 -59 7 -26 13 -47 26 -47 30 0 3 7 25 14 48 84 236 -72 522 -319
586 -82 21 -196 18 -274 -6z m218 -84 c107 -14 230 -115 272 -223 34 -86 33
-208 -3 -284 -37 -80 -108 -152 -187 -190 -59 -29 -75 -32 -156 -32 -115 0
-181 28 -264 111 -140 140 -144 355 -10 507 62 70 201 130 279 120 14 -2 45
-6 69 -9z"/>
<path d="M2285 1761 c-36 -9 -103 -40 -110 -51 -3 -5 12 -4 32 2 21 6 70 8
109 6 141 -9 274 -100 340 -231 l35 -72 -6 55 c-22 197 -213 336 -400 291z"/>
<path d="M2337 1684 c-4 -4 -7 -16 -7 -26 0 -10 -10 -22 -22 -27 -47 -18 -73
-59 -73 -113 0 -43 4 -53 33 -79 18 -16 39 -29 47 -29 12 0 15 -17 15 -91 0
-69 -3 -89 -12 -83 -30 17 -47 38 -53 65 -7 31 -22 38 -31 15 -11 -28 23 -84
65 -106 31 -15 41 -26 41 -45 0 -16 6 -25 15 -25 10 0 15 10 15 28 0 21 8 32
34 46 40 21 58 51 59 99 1 48 -18 81 -59 103 l-34 19 0 82 c0 46 4 83 8 83 14
0 50 -44 54 -65 5 -30 34 -26 30 5 -5 36 -28 67 -61 85 -16 8 -31 25 -33 37
-3 22 -19 33 -31 22z m-7 -164 c0 -44 -3 -80 -7 -80 -14 1 -39 25 -52 48 -20
38 13 110 52 112 4 0 7 -36 7 -80z m90 -160 c22 -41 7 -100 -30 -120 -19 -10
-20 -7 -20 75 0 82 1 85 20 75 11 -6 24 -19 30 -30z"/>
<path d="M1662 1697 c-6 -7 -17 -37 -23 -65 -7 -28 -16 -49 -21 -46 -4 3 -5
-1 -2 -9 3 -8 -22 -120 -55 -249 -34 -129 -61 -240 -61 -247 0 -8 17 -11 57
-9 l58 3 11 50 10 50 60 0 59 0 3 -42 3 -41 55 -4 c31 -1 60 2 64 7 5 6 -11
138 -39 310 l-47 300 -61 3 c-41 2 -63 -1 -71 -11z m73 -339 l7 -78 -42 0
c-30 0 -41 4 -38 13 3 6 16 59 29 117 22 100 24 103 30 65 4 -22 10 -75 14
-117z"/>
<path d="M1197 1659 c-21 -11 -46 -33 -56 -49 -10 -17 -20 -28 -22 -25 -3 2
-5 -4 -6 -13 -26 -270 -29 -411 -8 -451 8 -16 12 -30 10 -33 -2 -2 20 -15 50
-28 39 -17 58 -32 66 -53 11 -27 10 -32 -9 -47 -31 -26 -39 -66 -14 -74 31
-10 70 3 92 31 24 30 25 64 5 102 -14 28 -14 29 23 45 41 19 77 65 92 117 19
65 16 69 -45 69 -36 0 -57 -4 -59 -12 -3 -7 -7 -26 -10 -41 -8 -34 -47 -52
-78 -36 -19 10 -20 16 -13 182 4 95 11 182 16 195 20 51 89 45 89 -9 0 -37 18
-45 79 -33 38 7 47 13 49 33 6 40 -27 111 -62 132 -43 26 -138 25 -189 -2z"/>
<path d="M793 1643 c-13 -2 -23 -6 -23 -9 0 -5 -148 -579 -156 -606 -5 -16 2
-18 54 -18 l60 0 12 47 c14 57 21 63 83 63 40 0 48 -3 46 -17 -1 -10 1 -26 4
-35 4 -10 9 -24 11 -32 3 -10 18 -12 58 -8 29 2 55 6 57 9 4 3 -66 477 -86
586 -5 25 -9 27 -52 26 -25 -1 -56 -4 -68 -6z m51 -278 c4 -44 9 -94 12 -111
6 -30 4 -32 -33 -36 -21 -3 -40 -3 -42 -1 -3 2 3 38 13 81 26 115 37 154 40
151 2 -2 6 -40 10 -84z"/>
<path d="M331 1602 c-90 -45 -109 -108 -113 -376 -3 -143 -1 -157 18 -183 55
-75 182 -83 257 -15 27 24 55 82 59 122 l3 35 -54 3 c-58 3 -71 -5 -71 -45 0
-48 -81 -68 -93 -23 -3 10 -1 94 5 187 9 178 17 203 63 203 29 0 45 -19 45
-52 0 -24 4 -28 29 -28 16 0 43 3 60 6 29 6 31 9 31 49 0 48 -31 102 -70 122
-37 19 -129 16 -169 -5z"/>
<path d="M2456 952 c-3 -5 -39 -141 -81 -303 -42 -162 -78 -302 -81 -311 -5
-16 2 -18 50 -18 60 0 66 4 81 65 10 40 10 40 67 45 l57 5 6 -47 c7 -51 19
-57 93 -49 40 4 40 -2 1 243 -17 106 -32 207 -33 223 -2 17 -6 41 -9 55 -3 14
-9 42 -12 63 l-6 37 -64 0 c-35 0 -66 -4 -69 -8z m79 -369 l6 -53 -40 0 c-23
0 -41 4 -41 9 0 11 39 178 48 206 4 13 9 -3 13 -45 5 -36 11 -89 14 -117z"/>
<path d="M2062 930 c-51 -5 -99 -11 -107 -14 -11 -4 -15 -21 -15 -57 l0 -51
57 4 56 3 -2 -70 c-1 -38 -6 -142 -11 -230 -6 -88 -10 -173 -10 -189 l0 -29
56 6 c31 3 58 8 61 11 3 3 30 414 33 509 0 4 24 7 54 7 30 0 57 3 59 8 3 4 8
28 11 55 l7 47 -78 -1 c-43 -1 -120 -5 -171 -9z"/>
<path d="M1554 893 c-18 -3 -23 -13 -28 -56 -9 -86 -30 -567 -24 -572 3 -3 29
-2 59 2 l54 8 9 128 c8 113 11 127 27 127 11 0 21 -9 23 -22 3 -13 15 -70 27
-127 l23 -103 58 4 c32 2 60 6 62 9 3 2 -10 64 -29 137 l-33 133 25 25 c54 54
74 175 40 241 -33 62 -58 73 -171 72 -55 -1 -111 -4 -122 -6z m176 -122 c5
-11 10 -36 10 -56 0 -43 -36 -85 -75 -85 -25 0 -25 1 -25 80 l0 80 40 0 c29 0
42 -5 50 -19z"/>
<path d="M1219 871 c-87 -7 -107 -19 -102 -58 2 -16 -3 -149 -11 -298 -8 -148
-13 -271 -11 -273 2 -3 73 -1 157 4 l153 9 3 54 3 53 -97 -4 -96 -4 4 68 c3
38 7 71 10 73 2 3 29 8 59 12 l54 8 3 54 3 53 -58 -3 -58 -4 4 70 c2 39 5 72
6 73 2 2 46 7 97 10 l93 7 3 53 3 52 -73 -2 c-40 -1 -107 -4 -149 -7z"/>
<path d="M885 848 c-71 -5 -135 -10 -141 -12 -7 -3 -15 -98 -23 -263 -6 -142
-14 -282 -17 -310 l-6 -53 60 0 c72 0 72 0 73 118 1 48 4 101 8 117 6 28 10
30 56 33 57 4 65 12 65 70 l0 42 -59 0 -59 0 5 63 c7 90 4 87 82 87 38 0 81 4
95 10 23 8 26 15 26 60 0 41 -3 50 -17 49 -10 -1 -76 -6 -148 -11z"/>
<path d="M385 801 c-44 -26 -83 -76 -94 -119 -6 -20 -13 -116 -17 -212 -8
-211 -1 -239 74 -272 88 -39 194 -4 240 79 30 55 29 50 37 264 7 183 7 184
-17 219 -13 19 -35 40 -48 47 -39 20 -140 16 -175 -6z m115 -106 c9 -11 10
-55 2 -192 -9 -165 -11 -178 -32 -195 -28 -22 -44 -23 -65 -1 -15 14 -16 33
-11 157 8 174 14 212 33 231 19 19 57 19 73 0z"/>
</g>
</svg>
