<?xml version="1.0" standalone="no"?>
<!DOCTYPE svg PUBLIC "-//W3C//DTD SVG 20010904//EN"
 "http://www.w3.org/TR/2001/REC-SVG-20010904/DTD/svg10.dtd">
<svg version="1.0" xmlns="http://www.w3.org/2000/svg"
 width="791.000000pt" height="372.000000pt" viewBox="0 0 791.000000 372.000000"
 preserveAspectRatio="xMidYMid meet">

<g transform="translate(0.000000,372.000000) scale(0.100000,-0.100000)"
fill="#000000" stroke="none">
<path d="M4681 2999 c-117 -37 -216 -120 -269 -225 -41 -82 -54 -136 -54 -225
2 -230 163 -419 394 -460 142 -25 301 27 407 135 l55 55 47 -26 c42 -22 47
-28 38 -45 -13 -24 -15 -23 79 -75 42 -24 65 -41 51 -37 -34 7 -104 -12 -140
-39 -67 -49 -90 -168 -46 -240 13 -21 57 -64 98 -95 40 -32 75 -66 77 -76 6
-31 -8 -67 -31 -75 -34 -13 -57 4 -57 44 l0 35 -59 0 c-57 0 -59 -1 -64 -29
-11 -55 18 -123 63 -146 42 -22 138 -19 176 4 55 33 85 83 91 149 7 72 -9 106
-74 159 -128 104 -140 123 -113 172 25 47 80 30 80 -24 l0 -35 60 0 60 0 0 51
c0 28 -5 59 -11 71 -6 11 -9 21 -7 23 2 1 55 -26 118 -61 63 -35 127 -64 142
-64 95 0 136 103 65 165 -23 21 -460 265 -473 265 -4 0 -12 -7 -18 -16 -11
-14 -17 -13 -59 7 -26 13 -47 26 -47 30 0 3 7 25 14 48 84 236 -72 522 -319
586 -82 21 -196 18 -274 -6z m218 -84 c107 -14 230 -115 272 -223 34 -86 33
-208 -3 -284 -37 -80 -108 -152 -187 -190 -59 -29 -75 -32 -156 -32 -115 0
-181 28 -264 111 -140 140 -144 355 -10 507 62 70 201 130 279 120 14 -2 45
-6 69 -9z"/>
<path d="M4745 2861 c-36 -9 -103 -40 -110 -51 -3 -5 12 -4 32 2 21 6 70 8
109 6 141 -9 274 -100 340 -231 l35 -72 -6 55 c-22 197 -213 336 -400 291z"/>
<path d="M4797 2784 c-4 -4 -7 -16 -7 -26 0 -10 -10 -22 -22 -27 -47 -18 -73
-59 -73 -113 0 -43 4 -53 33 -79 18 -16 39 -29 47 -29 12 0 15 -17 15 -91 0
-69 -3 -89 -12 -83 -30 17 -47 38 -53 65 -7 31 -22 38 -31 15 -11 -28 23 -84
65 -106 31 -15 41 -26 41 -45 0 -16 6 -25 15 -25 10 0 15 10 15 28 0 21 8 32
34 46 40 21 58 51 59 99 1 48 -18 81 -59 103 l-34 19 0 82 c0 46 4 83 8 83 14
0 50 -44 54 -65 5 -30 34 -26 30 5 -5 36 -28 67 -61 85 -16 8 -31 25 -33 37
-3 22 -19 33 -31 22z m-7 -164 c0 -44 -3 -80 -7 -80 -14 1 -39 25 -52 48 -20
38 13 110 52 112 4 0 7 -36 7 -80z m90 -160 c22 -41 7 -100 -30 -120 -19 -10
-20 -7 -20 75 0 82 1 85 20 75 11 -6 24 -19 30 -30z"/>
<path d="M4122 2797 c-6 -7 -17 -37 -23 -65 -7 -28 -16 -49 -21 -46 -4 3 -5
-1 -2 -9 3 -8 -22 -120 -55 -249 -34 -129 -61 -240 -61 -247 0 -8 17 -11 57
-9 l58 3 11 50 10 50 60 0 59 0 3 -42 3 -41 55 -4 c31 -1 60 2 64 7 5 6 -11
138 -39 310 l-47 300 -61 3 c-41 2 -63 -1 -71 -11z m73 -339 l7 -78 -42 0
c-30 0 -41 4 -38 13 3 6 16 59 29 117 22 100 24 103 30 65 4 -22 10 -75 14
-117z"/>
<path d="M3657 2759 c-21 -11 -46 -33 -56 -49 -10 -17 -20 -28 -22 -25 -3 2
-5 -4 -6 -13 -26 -270 -29 -411 -8 -451 8 -16 12 -30 10 -33 -2 -2 20 -15 50
-28 39 -17 58 -32 66 -53 11 -27 10 -32 -9 -47 -31 -26 -39 -66 -14 -74 31
-10 70 3 92 31 24 30 25 64 5 102 -14 28 -14 29 23 45 41 19 77 65 92 117 19
65 16 69 -45 69 -36 0 -57 -4 -59 -12 -3 -7 -7 -26 -10 -41 -8 -34 -47 -52
-78 -36 -19 10 -20 16 -13 182 4 95 11 182 16 195 20 51 89 45 89 -9 0 -37 18
-45 79 -33 38 7 47 13 49 33 6 40 -27 111 -62 132 -43 26 -138 25 -189 -2z"/>
<path d="M3253 2743 c-13 -2 -23 -6 -23 -9 0 -5 -148 -579 -156 -606 -5 -16 2
-18 54 -18 l60 0 12 47 c14 57 21 63 83 63 40 0 48 -3 46 -17 -1 -10 1 -26 4
-35 4 -10 9 -24 11 -32 3 -10 18 -12 58 -8 29 2 55 6 57 9 4 3 -66 477 -86
586 -5 25 -9 27 -52 26 -25 -1 -56 -4 -68 -6z m51 -278 c4 -44 9 -94 12 -111
6 -30 4 -32 -33 -36 -21 -3 -40 -3 -42 -1 -3 2 3 38 13 81 26 115 37 154 40
151 2 -2 6 -40 10 -84z"/>
<path d="M2791 2702 c-90 -45 -109 -108 -113 -376 -3 -143 -1 -157 18 -183 55
-75 182 -83 257 -15 27 24 55 82 59 122 l3 35 -54 3 c-58 3 -71 -5 -71 -45 0
-48 -81 -68 -93 -23 -3 10 -1 94 5 187 9 178 17 203 63 203 29 0 45 -19 45
-52 0 -24 4 -28 29 -28 16 0 43 3 60 6 29 6 31 9 31 49 0 48 -31 102 -70 122
-37 19 -129 16 -169 -5z"/>
<path d="M4916 2052 c-3 -5 -39 -141 -81 -303 -42 -162 -78 -302 -81 -311 -5
-16 2 -18 50 -18 60 0 66 4 81 65 10 40 10 40 67 45 l57 5 6 -47 c7 -51 19
-57 93 -49 40 4 40 -2 1 243 -17 106 -32 207 -33 223 -2 17 -6 41 -9 55 -3 14
-9 42 -12 63 l-6 37 -64 0 c-35 0 -66 -4 -69 -8z m79 -369 l6 -53 -40 0 c-23
0 -41 4 -41 9 0 11 39 178 48 206 4 13 9 -3 13 -45 5 -36 11 -89 14 -117z"/>
<path d="M4522 2030 c-51 -5 -99 -11 -107 -14 -11 -4 -15 -21 -15 -57 l0 -51
57 4 56 3 -2 -70 c-1 -38 -6 -142 -11 -230 -6 -88 -10 -173 -10 -189 l0 -29
56 6 c31 3 58 8 61 11 3 3 30 414 33 509 0 4 24 7 54 7 30 0 57 3 59 8 3 4 8
28 11 55 l7 47 -78 -1 c-43 -1 -120 -5 -171 -9z"/>
<path d="M4014 1993 c-18 -3 -23 -13 -28 -56 -9 -86 -30 -567 -24 -572 3 -3
29 -2 59 2 l54 8 9 128 c8 113 11 127 27 127 11 0 21 -9 23 -22 3 -13 15 -70
27 -127 l23 -103 58 4 c32 2 60 6 62 9 3 2 -10 64 -29 137 l-33 133 25 25 c54
54 74 175 40 241 -33 62 -58 73 -171 72 -55 -1 -111 -4 -122 -6z m176 -122 c5
-11 10 -36 10 -56 0 -43 -36 -85 -75 -85 -25 0 -25 1 -25 80 l0 80 40 0 c29 0
42 -5 50 -19z"/>
<path d="M3679 1971 c-87 -7 -107 -19 -102 -58 2 -16 -3 -149 -11 -298 -8
-148 -13 -271 -11 -273 2 -3 73 -1 157 4 l153 9 3 54 3 53 -97 -4 -96 -4 4 68
c3 38 7 71 10 73 2 3 29 8 59 12 l54 8 3 54 3 53 -58 -3 -58 -4 4 70 c2 39 5
72 6 73 2 2 46 7 97 10 l93 7 3 53 3 52 -73 -2 c-40 -1 -107 -4 -149 -7z"/>
<path d="M3345 1948 c-71 -5 -135 -10 -141 -12 -7 -3 -15 -98 -23 -263 -6
-142 -14 -282 -17 -310 l-6 -53 60 0 c72 0 72 0 73 118 1 48 4 101 8 117 6 28
10 30 56 33 57 4 65 12 65 70 l0 42 -59 0 -59 0 5 63 c7 90 4 87 82 87 38 0
81 4 95 10 23 8 26 15 26 60 0 41 -3 50 -17 49 -10 -1 -76 -6 -148 -11z"/>
<path d="M2845 1901 c-44 -26 -83 -76 -94 -119 -6 -20 -13 -116 -17 -212 -8
-211 -1 -239 74 -272 88 -39 194 -4 240 79 30 55 29 50 37 264 7 183 7 184
-17 219 -13 19 -35 40 -48 47 -39 20 -140 16 -175 -6z m115 -106 c9 -11 10
-55 2 -192 -9 -165 -11 -178 -32 -195 -28 -22 -44 -23 -65 -1 -15 14 -16 33
-11 157 8 174 14 212 33 231 19 19 57 19 73 0z"/>
<path d="M3430 959 c0 -51 4 -78 10 -74 6 3 10 40 10 81 0 43 -4 74 -10 74 -6
0 -10 -34 -10 -81z"/>
<path d="M3490 960 c0 -47 4 -80 10 -80 6 0 10 17 10 39 0 75 57 83 62 9 2
-24 8 -43 13 -43 17 0 17 65 0 92 -14 20 -22 24 -46 19 -26 -5 -29 -3 -29 19
0 14 -4 25 -10 25 -6 0 -10 -33 -10 -80z"/>
<path d="M5740 1015 c0 -22 -3 -25 -24 -19 -33 8 -77 -34 -69 -66 9 -33 47
-54 72 -40 15 8 21 8 21 0 0 -6 5 -8 10 -5 6 3 10 40 10 81 0 43 -4 74 -10 74
-5 0 -10 -11 -10 -25z m-19 -45 c23 -13 24 -33 3 -54 -12 -12 -20 -13 -35 -6
-21 12 -25 40 -7 58 15 15 15 15 39 2z"/>
<path d="M6412 1027 c-9 -10 -4 -13 23 -13 27 0 32 3 23 13 -6 7 -16 13 -23
13 -7 0 -17 -6 -23 -13z"/>
<path d="M1740 955 l0 -75 50 0 c38 0 50 4 50 15 0 11 -11 15 -40 15 -33 0
-40 3 -40 20 0 16 7 20 35 20 19 0 35 5 35 10 0 6 -16 10 -35 10 -28 0 -35 4
-35 20 0 17 7 20 40 20 22 0 40 5 40 10 0 6 -22 10 -50 10 l-50 0 0 -75z"/>
<path d="M3100 954 c0 -47 4 -73 10 -69 6 3 10 27 10 53 l0 47 26 -42 c14 -24
27 -43 29 -43 2 0 15 19 29 43 l26 42 0 -52 c0 -29 5 -53 10 -53 6 0 10 32 10
75 0 42 -4 75 -10 75 -5 0 -19 -18 -30 -39 -11 -22 -24 -42 -29 -46 -6 -3 -22
15 -36 40 -15 25 -31 45 -36 45 -5 0 -9 -34 -9 -76z"/>
<path d="M4160 955 c0 -43 4 -75 10 -75 6 0 10 11 10 25 0 22 4 25 33 25 35 0
67 25 67 52 0 27 -35 48 -78 48 l-42 0 0 -75z m85 25 c0 -21 -5 -26 -32 -28
-31 -3 -33 -1 -33 28 0 29 2 31 33 28 27 -2 32 -7 32 -28z"/>
<path d="M5000 954 c0 -56 3 -75 13 -72 6 3 13 14 15 26 3 17 10 22 32 22 35
0 60 23 60 55 0 30 -26 45 -79 45 l-41 0 0 -76z m90 41 c17 -20 -3 -45 -36
-45 -20 0 -24 5 -24 30 0 25 4 30 24 30 13 0 29 -7 36 -15z"/>
<path d="M6003 958 c19 -40 38 -73 43 -73 8 0 72 119 73 138 1 4 -5 7 -11 7
-7 0 -24 -26 -37 -57 l-25 -56 -24 57 c-14 31 -31 56 -38 56 -9 0 -4 -21 19
-72z"/>
<path d="M2420 1003 c-10 -12 -11 -18 -2 -21 7 -2 12 -22 12 -47 0 -46 18 -63
48 -45 17 9 15 11 -10 14 -7 0 -14 18 -16 39 -2 28 0 37 12 37 9 0 16 5 16 10
0 6 -7 10 -15 10 -8 0 -15 5 -15 10 0 15 -13 12 -30 -7z"/>
<path d="M5367 1007 c-3 -7 -1 -33 4 -58 4 -24 8 -47 9 -50 0 -13 32 -19 48
-9 17 9 15 11 -10 14 -7 0 -14 18 -16 39 -2 28 0 37 12 37 9 0 16 5 16 10 0 6
-7 10 -15 10 -8 0 -15 5 -15 10 0 15 -27 12 -33 -3z"/>
<path d="M1880 937 c0 -36 4 -56 10 -52 6 3 10 21 10 39 0 38 19 59 44 50 11
-4 16 -19 16 -50 0 -24 5 -44 10 -44 15 0 12 96 -2 108 -7 6 -30 10 -50 9
l-38 -1 0 -59z"/>
<path d="M2043 990 c-42 -17 -38 -76 7 -100 14 -8 26 -8 40 0 29 16 24 25 -12
25 -28 0 -33 4 -36 26 -4 31 19 44 48 29 12 -6 21 -7 25 -1 3 6 -3 15 -14 20
-23 13 -28 13 -58 1z"/>
<path d="M2154 977 c-31 -27 -27 -58 12 -84 24 -15 27 -15 52 4 34 25 39 56
13 82 -27 27 -44 26 -77 -2z m59 -12 c9 -8 13 -24 10 -35 -8 -31 -57 -24 -61
9 -6 36 26 52 51 26z"/>
<path d="M2280 938 c0 -32 4 -58 10 -58 6 0 10 17 10 39 0 75 57 83 62 9 2
-24 8 -43 13 -43 15 0 17 57 2 85 -10 20 -20 25 -55 26 l-42 1 0 -59z"/>
<path d="M2513 984 c-8 -21 2 -99 12 -99 6 0 11 19 13 42 2 32 8 44 23 48 11
4 18 9 15 13 -11 11 -58 8 -63 -4z"/>
<path d="M2612 984 c-12 -8 -22 -25 -22 -38 0 -47 51 -78 86 -51 19 15 19 16
-1 14 -37 -3 -55 1 -55 11 0 6 18 10 40 10 33 0 40 3 40 19 0 20 -34 51 -55
51 -6 0 -21 -7 -33 -16z m45 -32 c-34 -4 -48 5 -27 18 8 5 22 4 34 -3 20 -11
20 -12 -7 -15z"/>
<path d="M2800 980 c-34 -34 -20 -80 27 -95 32 -9 77 36 68 68 -15 47 -61 61
-95 27z m54 -6 c21 -8 21 -53 0 -61 -37 -14 -64 38 -31 59 15 9 12 9 31 2z"/>
<path d="M2932 988 c-22 -22 -14 -48 18 -55 37 -7 34 -29 -4 -25 -14 1 -26 -2
-26 -7 0 -14 36 -24 59 -16 40 12 33 60 -10 67 -28 4 -19 24 10 20 15 -2 22 1
19 10 -6 18 -50 22 -66 6z"/>
<path d="M3312 984 c-24 -17 -30 -65 -9 -82 24 -19 53 -22 73 -6 18 15 18 15
-8 11 -16 -2 -36 2 -45 9 -16 12 -12 13 30 14 45 0 48 1 42 23 -7 24 -32 47
-50 47 -6 0 -21 -7 -33 -16z m42 -10 c27 -10 18 -24 -15 -24 -27 0 -30 2 -19
15 14 17 13 17 34 9z"/>
<path d="M3645 976 c-28 -28 -24 -60 11 -82 56 -37 118 51 62 90 -31 22 -45
20 -73 -8z m56 -6 c23 -13 24 -33 3 -54 -12 -12 -20 -13 -35 -6 -21 12 -25 40
-7 58 15 15 15 15 39 2z"/>
<path d="M3770 938 c0 -32 4 -58 10 -58 6 0 10 16 10 35 0 23 7 41 20 52 27
24 25 30 -10 30 -30 0 -30 -1 -30 -59z"/>
<path d="M3872 984 c-24 -17 -30 -65 -9 -82 24 -19 53 -22 73 -6 18 15 18 15
-8 11 -16 -2 -36 2 -45 9 -16 12 -12 13 30 14 53 0 61 16 27 50 -24 24 -38 25
-68 4z m58 -25 c0 -5 -15 -9 -32 -9 -31 1 -32 2 -15 15 19 14 47 10 47 -6z"/>
<path d="M3992 988 c-22 -22 -14 -48 18 -55 37 -7 34 -29 -3 -25 -34 4 -35
-14 -2 -22 31 -8 61 7 68 33 3 11 2 20 -2 19 -3 -1 -13 1 -21 4 -8 4 -23 9
-33 12 -27 9 -9 29 20 21 18 -4 24 -2 21 7 -6 18 -50 22 -66 6z"/>
<path d="M4303 984 c-8 -21 2 -99 12 -99 6 0 11 17 13 38 2 24 10 42 23 50 10
6 19 14 19 18 0 11 -62 5 -67 -7z"/>
<path d="M4400 980 c-23 -23 -24 -33 -10 -60 16 -30 45 -42 75 -30 14 5 23 15
20 20 -4 6 -12 7 -22 1 -18 -10 -53 -3 -53 10 0 5 18 9 40 9 33 0 40 3 40 19
0 20 -35 51 -57 51 -7 0 -22 -9 -33 -20z m60 -15 c11 -13 8 -15 -19 -15 -31 0
-42 14 -18 23 20 9 24 8 37 -8z"/>
<path d="M4536 979 c-32 -25 -33 -43 -2 -73 32 -33 39 -54 18 -60 -9 -2 -6 -4
8 -3 18 2 25 7 23 22 -1 11 5 24 13 28 8 4 14 12 14 18 0 7 -6 7 -17 0 -25
-13 -53 4 -53 33 0 28 24 40 50 26 12 -6 21 -7 25 -1 5 10 -24 31 -43 31 -5 0
-21 -9 -36 -21z"/>
<path d="M4655 976 c-28 -28 -24 -60 10 -82 57 -37 113 38 65 86 -26 26 -46
25 -75 -4z m59 -11 c27 -27 -3 -72 -36 -54 -20 11 -24 55 -5 62 20 9 25 8 41
-8z"/>
<path d="M4780 985 c-14 -17 -7 -43 15 -50 49 -16 50 -16 37 -24 -8 -4 -24 -6
-38 -3 -32 6 -31 -14 1 -22 29 -7 65 8 65 28 0 17 -19 33 -45 38 -25 4 -17 23
10 24 36 2 40 4 25 14 -22 14 -56 12 -70 -5z"/>
<path d="M5162 984 c-12 -8 -22 -25 -22 -38 0 -47 51 -77 86 -52 18 14 17 15
-14 14 -18 -1 -38 4 -44 10 -9 9 -1 12 35 12 40 0 47 3 47 19 0 20 -34 51 -55
51 -6 0 -21 -7 -33 -16z m45 -32 c-34 -4 -48 5 -27 18 8 5 22 4 34 -3 20 -11
20 -12 -7 -15z"/>
<path d="M5280 938 c0 -32 4 -58 10 -58 6 0 10 16 10 35 0 23 7 41 20 52 27
24 25 30 -10 30 -30 0 -30 -1 -30 -59z"/>
<path d="M5472 984 c-41 -29 -19 -96 31 -96 36 0 57 19 57 53 0 27 -30 59 -55
59 -6 0 -21 -7 -33 -16z m56 -16 c30 -30 -4 -77 -41 -57 -21 12 -22 33 -1 53
19 19 26 20 42 4z"/>
<path d="M5812 984 c-12 -8 -22 -25 -22 -38 0 -47 51 -77 86 -52 18 14 17 15
-14 14 -18 -1 -38 4 -44 10 -9 9 -1 12 35 12 40 0 47 3 47 19 0 20 -34 51 -55
51 -6 0 -21 -7 -33 -16z m45 -32 c-34 -4 -48 5 -27 18 8 5 22 4 34 -3 20 -11
20 -12 -7 -15z"/>
<path d="M6142 984 c-38 -26 -24 -84 25 -99 32 -9 77 36 68 68 -14 45 -54 59
-93 31z m61 -26 c6 -8 7 -23 4 -32 -7 -19 -56 -22 -58 -3 -5 51 30 74 54 35z"/>
<path d="M6282 984 c-38 -26 -28 -80 18 -96 21 -7 63 10 55 22 -4 7 -12 7 -23
1 -39 -22 -71 31 -36 60 12 10 20 10 34 1 11 -7 21 -8 25 -2 5 9 -24 30 -42
30 -5 0 -19 -7 -31 -16z"/>
<path d="M6402 984 c-24 -17 -30 -65 -9 -82 24 -19 53 -22 73 -7 18 14 18 15
-11 13 -17 -1 -37 2 -45 8 -11 7 -3 10 29 14 51 6 61 20 32 49 -25 25 -39 26
-69 5z m58 -25 c0 -5 -15 -9 -32 -9 -31 1 -32 2 -15 15 19 14 47 10 47 -6z"/>
<path d="M4882 878 c-1 -31 0 -32 14 -14 18 25 18 46 1 46 -9 0 -14 -12 -15
-32z"/>
</g>
</svg>
